# xmcd
#
# Track frame offsets:
# 150
# 15499
# 28181
# 41654
# 57442
# 74139
# 90749
# 104908
# 119560
# 136524
# 149644
# 163776
# 180530
# 193528
# 209631
# 224572
# 238635
# 250415
# 263129
#
# Disc length: 3580 seconds
#
#
# Revision: 0
# Processed by: cddbd v1.5.1PL0 Copyright (c) Steve Scherf et al.
# Submitted via: FreeRIP 2.942 
#
DISCID=320dfa13
DTITLE=Die Sorgenbrecher - Heimadgrüsse aus Gemünden
DYEAR=2005
DGENRE=Volksmusik
TTITLE0=Singen macht das Leben schön
TTITLE1=Rund um die Welt
TTITLE2=Ladiniens Berge
TTITLE3=Sehnsuchtsmelodie
TTITLE4=Hallo Freunde
TTITLE5=Schulzeitfreunde
TTITLE6=Und die Wolga fliest ins Abendrot hinein
TTITLE7=Miteinander Füreinander
TTITLE8=Die alte Mühle
TTITLE9=Rolling Home
TTITLE10=Ja ja so sind wir die Hessen
TTITLE11=Gefangen in Maurischer Wüste
TTITLE12=Zigeunerkind
TTITLE13=Mein Heimatland mein schöner Vogelsberg
TTITLE14=Beim Wirt von nebenan
TTITLE15=Nur ein kleines bisschen Herzlichkeit
TTITLE16=Das Lied der Sorgenbrecher
TTITLE17=Die Sorgenbrecher waren wieder da
TTITLE18=Wir sagen Dankeschön
EXTD=Hainbacg
EXTT0=
EXTT1=
EXTT2=
EXTT3=
EXTT4=
EXTT5=
EXTT6=
EXTT7=
EXTT8=
EXTT9=
EXTT10=
EXTT11=
EXTT12=
EXTT13=
EXTT14=
EXTT15=
EXTT16=
EXTT17=
EXTT18=
PLAYORDER=
